<?xml version="1.0" standalone="no"?>
<!DOCTYPE svg PUBLIC "-//W3C//DTD SVG 20010904//EN"
 "http://www.w3.org/TR/2001/REC-SVG-20010904/DTD/svg10.dtd">
<svg version="1.0" xmlns="http://www.w3.org/2000/svg"
 width="500.000000pt" height="500.000000pt" viewBox="0 0 500.000000 500.000000"
 preserveAspectRatio="xMidYMid meet">
<metadata>
Created by potrace 1.16, written by Peter Selinger 2001-2019
</metadata>
<g transform="translate(0.000000,500.000000) scale(0.100000,-0.100000)"
fill="#000000" stroke="none">
<path d="M2336 3572 c-15 -17 -16 -66 -14 -555 l3 -537 -88 0 -88 0 3 -47 3
-48 977 -3 c977 -2 977 -2 988 18 6 12 10 33 8 48 -3 27 -4 27 -90 30 l-88 3
0 542 c0 409 -3 546 -12 555 -9 9 -200 12 -798 12 -753 0 -788 -1 -804 -18z
m1564 -537 l0 -505 -762 2 -763 3 -3 490 c-1 270 0 496 3 503 3 9 166 12 765
12 l760 0 0 -505z"/>
<path d="M1151 3238 c-5 -13 -54 -138 -109 -278 -56 -141 -104 -263 -108 -273
-5 -14 0 -17 29 -17 34 0 34 0 69 93 l35 92 118 0 118 0 35 -92 c34 -92 35
-93 68 -93 19 0 34 3 34 8 0 4 -51 135 -113 292 -107 271 -113 285 -140 288
-21 3 -29 -2 -36 -20z m83 -198 l43 -115 -85 -3 c-46 -2 -87 -1 -89 2 -3 3 14
59 38 125 24 66 45 117 47 113 2 -4 22 -59 46 -122z"/>
<path d="M1520 2960 l0 -290 35 0 35 0 0 113 c0 113 0 113 30 142 27 26 31 27
43 13 6 -9 55 -73 107 -142 92 -123 95 -126 133 -126 46 0 54 -18 -90 178
l-113 152 114 123 114 122 -36 3 c-40 4 -29 14 -214 -188 l-88 -95 0 143 0
142 -35 0 -35 0 0 -290z"/>
<path d="M520 1700 l0 -230 25 0 c25 0 25 1 25 90 l0 90 58 0 c115 0 188 65
179 159 -9 84 -79 121 -228 121 l-59 0 0 -230z m179 169 c38 -13 51 -35 51
-84 0 -53 -32 -80 -104 -89 -31 -3 -62 -4 -67 -1 -5 4 -9 46 -9 96 l0 89 49 0
c26 0 62 -5 80 -11z"/>
<path d="M1005 1804 c-16 -8 -38 -25 -47 -37 l-18 -22 0 33 c0 27 -4 32 -25
32 l-25 0 0 -170 0 -170 30 0 30 0 0 110 c0 63 5 120 12 135 14 32 56 55 98
55 25 0 30 4 30 25 0 21 -5 25 -27 25 -16 0 -41 -7 -58 -16z"/>
<path d="M1222 1800 c-59 -27 -86 -86 -80 -176 6 -102 61 -158 153 -158 93 0
147 56 153 159 6 87 -21 145 -82 174 -53 26 -89 26 -144 1z m142 -53 c45 -45
45 -163 1 -211 -34 -37 -102 -37 -138 0 -46 46 -47 165 -1 211 17 17 34 23 69
23 35 0 52 -6 69 -23z"/>
<path d="M1594 1806 c-43 -19 -64 -53 -64 -102 0 -31 7 -51 25 -72 22 -26 23
-31 10 -42 -18 -15 -20 -71 -3 -88 9 -9 8 -12 -4 -12 -23 0 -58 -47 -58 -77 0
-62 48 -93 145 -93 104 0 160 33 171 102 5 27 1 40 -19 64 -23 26 -32 29 -106
35 -88 6 -113 18 -95 47 7 11 31 20 65 25 30 4 65 16 79 26 32 23 48 82 33
121 -10 27 -9 29 18 35 49 11 36 35 -18 35 -27 0 -70 2 -98 5 -32 4 -61 0 -81
-9z m116 -46 c12 -12 20 -33 20 -55 0 -22 -8 -43 -20 -55 -12 -12 -33 -20 -55
-20 -22 0 -43 8 -55 20 -12 12 -20 33 -20 55 0 22 8 43 20 55 12 12 33 20 55
20 22 0 43 -8 55 -20z m40 -298 c30 -25 21 -66 -20 -87 -40 -21 -138 -20 -162
2 -18 16 -23 49 -10 69 25 38 152 48 192 16z"/>
<path d="M2004 1806 c-17 -8 -39 -24 -48 -37 l-16 -23 0 32 c0 27 -4 32 -25
32 l-25 0 0 -170 0 -170 25 0 c25 0 25 1 25 93 0 50 5 109 10 129 13 46 52 78
95 78 21 0 35 6 39 16 14 35 -23 44 -80 20z"/>
<path d="M2215 1807 c-29 -9 -40 -18 -40 -32 0 -15 6 -19 20 -16 11 2 43 5 71
8 45 4 54 2 68 -18 9 -13 16 -36 16 -51 0 -27 -1 -28 -59 -28 -106 0 -161 -36
-161 -105 0 -22 7 -50 15 -62 33 -47 138 -50 187 -7 18 17 19 17 25 -4 3 -13
13 -22 24 -22 18 0 19 9 19 135 0 138 -7 172 -41 193 -30 19 -99 23 -144 9z
m132 -209 c-7 -56 -43 -88 -97 -88 -44 0 -70 20 -70 54 0 43 55 71 144 75 28
1 29 0 23 -41z"/>
<path d="M2620 1813 c-8 -3 -25 -15 -38 -26 l-23 -21 -6 22 c-3 13 -13 22 -24
22 -18 0 -19 -10 -19 -170 l0 -170 25 0 25 0 0 115 c0 156 15 185 95 185 59 0
65 -15 65 -166 l0 -134 30 0 30 0 0 125 c0 120 1 127 25 150 17 18 35 25 63
25 65 0 72 -16 72 -168 l0 -132 25 0 25 0 0 138 c0 156 -7 179 -62 200 -47 18
-98 9 -137 -23 -24 -21 -30 -22 -35 -10 -11 31 -94 53 -136 38z"/>
<path d="M3210 1809 c-13 -5 -32 -17 -41 -25 -16 -14 -18 -13 -24 5 -3 12 -15
21 -26 21 -18 0 -19 -9 -19 -170 l0 -170 25 0 25 0 0 103 c0 161 17 197 92
197 67 0 73 -12 76 -164 l4 -136 24 0 24 0 0 115 c0 120 12 166 45 179 23 9
78 7 93 -2 22 -14 32 -73 32 -184 l0 -108 25 0 25 0 -1 123 c0 67 -5 138 -12
157 -23 68 -123 89 -189 40 l-30 -22 -21 21 c-26 24 -92 35 -127 20z"/>
<path d="M3970 1809 c-13 -5 -33 -17 -43 -26 -17 -16 -18 -15 -24 5 -3 13 -13
22 -24 22 -18 0 -19 -10 -19 -170 l0 -170 25 0 25 0 0 109 c0 159 17 190 102
191 71 0 78 -16 78 -172 l0 -128 25 0 25 0 0 140 c0 138 0 140 -27 170 -31 34
-99 48 -143 29z"/>
<path d="M4315 1813 c-39 -11 -65 -36 -76 -73 -14 -47 -6 -84 25 -115 23 -23
23 -24 5 -41 -20 -18 -26 -59 -9 -69 16 -10 12 -23 -11 -30 -11 -4 -26 -20
-33 -37 -28 -67 12 -119 98 -126 131 -11 206 28 206 107 0 65 -32 91 -112 91
-87 0 -108 7 -108 36 0 24 26 45 47 37 22 -8 89 17 112 41 23 25 31 75 18 114
-7 19 -4 23 22 28 54 11 38 34 -23 34 -29 0 -73 2 -97 4 -24 3 -53 2 -64 -1z
m93 -49 c17 -12 22 -25 22 -59 0 -50 -24 -75 -73 -75 -35 0 -77 40 -77 75 0
58 78 95 128 59z m36 -294 c36 -13 36 -61 0 -89 -32 -25 -138 -30 -168 -8 -26
19 -24 67 4 89 25 20 120 25 164 8z"/>
<path d="M3690 1640 l0 -170 30 0 30 0 0 170 0 170 -30 0 -30 0 0 -170z"/>
</g>
</svg>
