<?xml version="1.0" standalone="no"?>
<!DOCTYPE svg PUBLIC "-//W3C//DTD SVG 20010904//EN"
 "http://www.w3.org/TR/2001/REC-SVG-20010904/DTD/svg10.dtd">
<svg version="1.0" xmlns="http://www.w3.org/2000/svg"
 width="500.000000pt" height="500.000000pt" viewBox="0 0 500.000000 500.000000"
 preserveAspectRatio="xMidYMid meet">
<metadata>
Created by potrace 1.16, written by Peter Selinger 2001-2019
</metadata>
<g transform="translate(0.000000,500.000000) scale(0.100000,-0.100000)"
fill="#000000" stroke="none">
<path d="M1169 3233 c-23 -4 -31 -20 -99 -216 -55 -156 -82 -219 -102 -240
-15 -16 -28 -37 -28 -48 0 -18 8 -19 110 -19 110 0 110 0 110 24 0 21 -6 25
-32 28 -38 4 -46 27 -28 83 l12 35 74 0 c72 0 75 -1 85 -27 5 -15 9 -41 7 -57
-2 -25 -8 -32 -30 -34 -24 -3 -28 -8 -28 -34 0 -27 3 -30 23 -24 12 3 66 6
120 6 96 0 97 0 97 24 0 16 -7 27 -20 31 -11 4 -26 18 -34 33 -12 23 -74 237
-116 400 -11 41 -11 42 -53 41 -23 -1 -53 -4 -68 -6z"/>
<path d="M1500 3208 c0 -23 4 -28 25 -28 l25 0 0 -200 0 -199 -30 -16 c-18 -9
-30 -23 -30 -35 0 -19 7 -20 115 -20 l115 0 0 24 c0 19 -6 25 -27 28 l-28 3
-3 140 c-2 77 0 168 3 203 6 55 10 64 31 72 16 6 24 17 24 33 0 24 -1 24 -110
24 l-110 -1 0 -28z"/>
<path d="M1777 3213 c-3 -19 1 -27 19 -33 13 -5 24 -16 24 -24 0 -8 -34 -51
-75 -96 -43 -46 -72 -87 -69 -93 52 -92 150 -240 167 -252 25 -17 99 -20 128
-5 25 14 25 50 1 50 -25 0 -69 49 -135 149 l-56 84 71 79 c39 43 83 88 99 99
18 12 29 29 29 43 0 22 -3 23 -99 23 -97 0 -99 -1 -104 -24z"/>
<path d="M637 1904 c-14 -15 -7 -33 16 -36 21 -3 22 -6 25 -146 3 -144 -4
-182 -33 -182 -8 0 -15 -9 -15 -20 0 -20 5 -21 92 -18 78 3 93 6 96 20 2 12
-5 17 -25 20 -26 3 -28 6 -31 56 l-3 52 52 0 c67 0 111 27 139 85 18 37 20 50
11 82 -6 22 -22 50 -37 64 -24 22 -34 24 -152 27 -70 2 -131 0 -135 -4z m218
-64 c21 -18 28 -68 14 -102 -14 -34 -38 -46 -80 -40 -32 5 -35 22 -22 117 l6
47 34 -5 c19 -4 41 -11 48 -17z"/>
<path d="M1855 1809 c-11 -4 -54 -8 -95 -8 -82 -1 -113 -13 -141 -51 -32 -43
-34 -80 -5 -122 l25 -37 -26 -19 c-31 -23 -25 -55 14 -75 l25 -14 -31 -22
c-39 -28 -39 -45 -2 -82 26 -25 37 -29 88 -29 87 0 162 52 163 111 0 40 -30
59 -121 75 -91 16 -94 17 -86 37 3 9 16 12 35 9 96 -14 182 83 142 159 -9 16
-7 19 10 19 22 0 34 19 28 43 -2 10 -9 12 -23 6z"/>
<path d="M4365 1809 c-11 -4 -54 -8 -95 -8 -82 -1 -113 -13 -141 -51 -32 -43
-34 -80 -5 -122 l25 -37 -26 -19 c-31 -23 -25 -55 14 -75 l25 -14 -31 -22
c-39 -28 -39 -45 -2 -82 26 -25 37 -29 88 -29 87 0 162 52 163 111 0 40 -30
59 -121 75 -91 16 -94 17 -86 37 3 9 16 12 35 9 96 -14 182 83 142 159 -9 16
-7 19 10 19 22 0 34 19 28 43 -2 10 -9 12 -23 6z"/>
<path d="M1055 1793 c-11 -2 -30 -6 -42 -9 -30 -6 -32 -44 -3 -44 19 0 20 -7
20 -95 0 -67 -4 -96 -13 -102 -8 -4 -16 -16 -20 -25 -6 -16 2 -18 78 -18 78 0
85 2 85 20 0 14 -7 20 -24 20 -31 0 -37 18 -29 93 6 68 16 87 44 87 14 0 19
-7 19 -25 0 -18 5 -25 19 -25 14 0 20 10 25 38 11 67 8 92 -12 92 -19 0 -60
-25 -79 -50 -10 -13 -12 -10 -13 18 0 33 -6 36 -55 25z"/>
<path d="M1345 1791 c-117 -51 -123 -239 -9 -287 45 -19 70 -18 120 7 93 45
113 194 35 263 -24 21 -112 32 -146 17z m84 -62 c41 -44 34 -170 -10 -184 -51
-16 -79 23 -79 112 0 85 44 120 89 72z"/>
<path d="M1975 1793 c-11 -2 -30 -6 -42 -9 -29 -6 -31 -40 -3 -47 18 -5 20
-14 20 -96 0 -80 -2 -92 -20 -101 -11 -6 -20 -17 -20 -26 0 -23 163 -16 168 8
2 12 -5 17 -25 20 -28 3 -28 3 -27 76 0 53 5 77 16 89 21 20 48 10 48 -17 0
-15 5 -20 18 -18 12 2 19 18 26 61 4 32 6 61 3 64 -11 11 -59 -8 -83 -32 -32
-32 -35 -31 -27 5 6 32 0 34 -52 23z"/>
<path d="M2234 1780 c-48 -21 -56 -30 -44 -50 7 -11 14 -12 35 -2 52 24 105 3
105 -41 0 -17 -8 -20 -85 -37 -62 -14 -75 -25 -75 -65 0 -72 73 -109 129 -66
23 17 24 17 47 -6 30 -30 49 -29 79 3 32 35 31 50 -2 49 l-28 0 4 96 c3 94 3
96 -24 117 -34 27 -84 28 -141 2z"/>
<path d="M2526 1790 c-45 -8 -64 -30 -38 -44 28 -15 32 -28 32 -103 0 -80 -6
-103 -26 -103 -8 0 -14 -9 -14 -20 0 -18 7 -20 69 -20 60 0 69 2 74 20 4 15 0
20 -14 20 -17 0 -19 8 -19 85 0 84 0 85 30 100 23 12 35 13 50 5 18 -9 20 -21
20 -96 0 -66 -3 -86 -15 -90 -8 -4 -15 -15 -15 -25 0 -17 8 -19 70 -19 62 0
70 2 70 19 0 11 -9 21 -21 24 -20 5 -21 11 -15 53 3 26 6 64 6 84 0 34 4 39
33 49 29 11 34 9 50 -11 16 -19 18 -36 15 -96 -2 -40 -8 -76 -14 -80 -6 -4
-13 -15 -17 -24 -6 -16 1 -18 62 -18 54 0 70 4 75 16 9 23 8 24 -15 24 -22 0
-22 2 -15 105 7 103 6 106 -18 130 -33 33 -81 33 -121 1 l-30 -24 -28 24 c-37
31 -73 30 -121 -2 l-39 -27 7 27 c7 29 3 30 -68 16z"/>
<path d="M3075 1793 c-11 -2 -30 -6 -42 -9 -28 -6 -30 -30 -3 -44 18 -9 20
-21 20 -98 0 -75 -3 -90 -20 -105 -35 -29 -23 -37 55 -37 67 0 75 2 75 19 0
11 -9 21 -21 24 -20 5 -21 10 -16 59 4 29 7 67 7 85 0 26 5 33 33 42 29 11 34
9 50 -11 25 -30 21 -155 -6 -182 -29 -29 -20 -36 52 -36 60 0 69 2 74 20 4 15
0 20 -14 20 -17 0 -19 8 -19 78 0 83 4 93 38 111 16 8 28 9 42 1 18 -9 20 -21
20 -96 0 -66 -3 -86 -15 -90 -8 -4 -15 -15 -15 -25 0 -17 8 -19 70 -19 62 0
70 2 70 19 0 10 -9 21 -20 24 -19 5 -20 11 -14 109 l7 104 -28 22 c-36 28 -72
28 -115 -2 l-35 -24 -22 24 c-30 32 -76 31 -120 -2 l-33 -25 0 25 c0 26 -8 29
-55 19z"/>
<path d="M3615 1793 c-11 -2 -30 -6 -42 -9 -29 -6 -29 -18 -2 -45 19 -19 21
-30 17 -106 -2 -68 -6 -86 -20 -94 -10 -6 -18 -18 -18 -27 0 -15 9 -16 72 -12
59 4 73 8 76 23 2 12 -3 17 -19 17 -22 0 -22 1 -17 130 6 140 8 135 -47 123z"/>
<path d="M3795 1793 c-11 -2 -30 -6 -42 -9 -28 -6 -30 -34 -3 -41 18 -5 20
-14 20 -99 0 -66 -4 -95 -13 -101 -8 -4 -16 -16 -20 -25 -6 -16 1 -18 68 -18
68 0 75 2 75 20 0 11 -6 20 -14 20 -21 0 -24 17 -18 102 4 75 5 77 35 87 37
13 33 14 51 -5 25 -25 22 -154 -4 -184 -11 -13 -20 -27 -20 -32 0 -5 33 -8 72
-6 60 2 73 6 76 21 2 12 -3 17 -19 17 -22 0 -22 1 -15 105 7 103 6 106 -18
130 -33 33 -79 33 -123 -1 l-33 -25 0 25 c0 26 -8 29 -55 19z"/>
</g>
</svg>
